<?xml version="1.0" encoding="utf-8"?>
<!-- Designed by Vexels.com - 2016 All Rights Reserved - https://vexels.com/terms-and-conditions/  -->

<svg version="1.1" id="Layer_1" xmlns="http://www.w3.org/2000/svg" xmlns:xlink="http://www.w3.org/1999/xlink" x="0px" y="0px"
	 width="1200px" height="1200px" viewBox="0 0 1200 1200" enable-background="new 0 0 1200 1200" xml:space="preserve">
<g>
	<g>
		<path fill="#F59C00" d="M592.789,50c-3.033,0-5.128,0.052-6.168,0.101c-119.743,0.101-212.135,33.506-274.535,99.347
			c-83.344,87.924-81.605,201.839-81.112,214.887c0.294,159.146,96.072,227.678,162.943,247.374
			c7.678,33.201,23.975,77.67,64.521,77.67c17.692,0,32.578-9.747,44.75-23.351c10.61,12.894,24.544,22.184,42.896,22.184h0.026
			c14.022,0,25.661-5.635,35.179-13.859c8.933,8.325,20.102,14.061,34,14.061h0.013c17.183,0,30.699-8.985,41.272-21.88
			c12.156,13.911,26.639,23.099,44.417,23.099l0,0c35.536-0.052,52.885-35.434,61.197-65.132
			c154.275-15.839,196.129-163.666,196.129-243.821C958.317,59.289,630.201,50,592.789,50z"/>
		<g>
			<path d="M592.789,50c-3.033,0-5.128,0.052-6.168,0.101c-119.743,0.101-212.135,33.506-274.535,99.347
				c-83.344,87.924-81.605,201.839-81.112,214.887c0.294,159.146,96.072,227.678,162.943,247.374
				c7.678,33.201,23.975,77.67,64.521,77.67c17.692,0,32.578-9.747,44.75-23.351c10.61,12.894,24.544,22.184,42.896,22.184h0.026
				c14.022,0,25.661-5.635,35.179-13.859c8.933,8.325,20.102,14.061,34,14.061h0.013c17.183,0,30.699-8.985,41.272-21.88
				c12.156,13.911,26.639,23.099,44.417,23.099l0,0c35.536-0.052,52.885-35.434,61.197-65.132
				c154.275-15.839,196.129-163.666,196.129-243.821C958.317,59.289,630.201,50,592.789,50z M734.448,558.053l-29.178,0.049
				l-4.367,28.835c-0.889,5.939-2.308,12.336-3.946,18.275c-3.478-6.446-7.602-15.026-12.325-26.296l-1.762-4.263l-0.229,1.216
				c-31.665-52.235-57.948-4.517-60.105-0.406l-2.082,8.276c-1.294,5.126-2.994,10.558-4.873,15.837
				c-0.265-0.811-0.533-1.572-0.811-2.386l-7.298-21.472l-0.026,0.151c-27.273-48.734-49.584,0-49.584,0l-0.039-0.101l-7.309,21.524
				c-0.99,2.945-2.246,6.043-3.618,9.089c-2.448-5.942-5.253-13.757-8.299-24.063l-2.971-10.002l-0.075,0.255
				c-25.802-41.017-52.921-8.884-57.199-3.35l-4.073,10.963c-3.161,8.478-7.436,17.666-11.701,25.435
				c-2.007-7.007-4.187-16.195-6.37-28.227l-4.406-24.266l-24.429-3.298c-5.242-0.712-128.575-19.291-128.575-186.255l-0.026-1.676
				c-0.036-0.964-3.615-96.553,63.076-166.356c49.217-51.476,125.032-77.618,225.331-77.618h1.219
				c0.291-0.052,1.814-0.101,4.393-0.101c49.698,0,297.709,12.692,297.709,262.86C890.498,387.889,888.72,558.053,734.448,558.053z"
				/>
			<path d="M827.637,367.026c0,52.287-42.377,94.677-94.638,94.677c-52.264,0-94.638-42.39-94.638-94.677
				c0-52.238,42.374-94.627,94.638-94.627C785.261,272.399,827.637,314.788,827.637,367.026z"/>
			<path d="M555.005,367.026c0,52.287-42.374,94.677-94.638,94.677c-52.287,0-94.637-42.39-94.637-94.677
				c0-52.238,42.35-94.627,94.637-94.627C512.631,272.399,555.005,314.788,555.005,367.026z"/>
		</g>
	</g>
	<g>
		<path d="M1009.869,725.321c0,0,69.917,26.043,21.906,61.984c0,0-33.999,25.94-83.926-0.101L351.96,1062.197
			c0,0-94.092,129.804-145.986,73.761c0,0-33.898-50.005,38.075-81.884c0,0-131.824-44.115-23.834-103.917
			c0,0,81.933-1.929,89.879,34.064L903.948,727.2c0,0,64.079-95.844,108.015-71.833
			C1011.964,655.368,1067.869,687.452,1009.869,725.321z"/>
		<path d="M196.785,730.195c0,0-31.094-67.82,28.25-59.344c0,0,42.403,5.635,59.357,59.344L900.497,956.3
			c0,0,158.273-25.433,155.442,50.868c0,0-11.309,59.344-84.776,31.117c0,0,62.161,124.323-56.539,90.414
			c0,0-59.344-56.503-39.559-87.62L273.086,803.704c0,0-113.052,22.589-127.179-25.435
			C145.907,778.268,128.953,716.084,196.785,730.195z"/>
	</g>
</g>
</svg>
